<svg width="51" height="51" viewBox="0 0 51 51" fill="none" xmlns="http://www.w3.org/2000/svg">
<path d="M21.0324 22.8968C18.7681 22.8968 16.5547 22.2254 14.672 20.9674C12.7893 19.7094 11.3219 17.9214 10.4554 15.8295C9.58894 13.7376 9.36223 11.4357 9.80397 9.21493C10.2457 6.99416 11.3361 4.95425 12.9371 3.35316C14.5382 1.75208 16.5781 0.661722 18.7989 0.219983C21.0197 -0.221756 23.3216 0.0049604 25.4135 0.871462C27.5054 1.73796 29.2934 3.20533 30.5514 5.08801C31.8093 6.97069 32.4808 9.18412 32.4808 11.4484C32.4808 14.4847 31.2746 17.3967 29.1276 19.5436C26.9806 21.6906 24.0687 22.8968 21.0324 22.8968ZM21.0324 3.40181C19.415 3.40181 17.834 3.88141 16.4893 4.77996C15.1445 5.67851 14.0964 6.95565 13.4774 8.44987C12.8585 9.9441 12.6966 11.5883 13.0121 13.1746C13.3276 14.7608 14.1064 16.2179 15.2501 17.3616C16.3937 18.5052 17.8508 19.284 19.4371 19.5995C21.0233 19.9151 22.6675 19.7531 24.1617 19.1342C25.656 18.5153 26.9331 17.4671 27.8317 16.1224C28.7302 14.7776 29.2098 13.1966 29.2098 11.5792C29.2098 10.5054 28.9983 9.44201 28.5873 8.44987C28.1764 7.45774 27.574 6.55627 26.8147 5.79693C26.0554 5.03758 25.1539 4.43524 24.1617 4.02428C23.1696 3.61333 22.1063 3.40181 21.0324 3.40181Z" fill="#06D6B4"/>
<path d="M30.142 24.8758C21.2915 22.8842 12.0324 23.8434 3.77803 27.607C2.64283 28.1493 1.68503 29.0029 1.01618 30.0684C0.347329 31.1339 -0.00505857 32.3675 5.48694e-05 33.6256V43.3567C5.48694e-05 43.7905 0.172364 44.2065 0.479077 44.5132C0.78579 44.8199 1.20178 44.9922 1.63554 44.9922C2.0693 44.9922 2.48529 44.8199 2.792 44.5132C3.09872 44.2065 3.27103 43.7905 3.27103 43.3567V33.6256C3.25679 32.9889 3.42872 32.3619 3.76573 31.8215C4.10273 31.2812 4.59016 30.8509 5.16819 30.5836C10.1405 28.2877 15.5557 27.1098 21.0324 27.1327C24.1011 27.1288 27.1593 27.4912 30.142 28.2121V24.8758Z" fill="#06D6B4"/>
<path d="M40.413 40.4292H30.3711V42.7189H40.413V40.4292Z" fill="#06D6B4"/>
<path d="M48.4104 30.7145H39.9549V33.9854H46.7749V47.6744H23.6001V33.9854H33.9036V34.6723C33.9036 35.1061 34.0759 35.5221 34.3827 35.8288C34.6894 36.1355 35.1054 36.3078 35.5391 36.3078C35.9729 36.3078 36.3889 36.1355 36.6956 35.8288C37.0023 35.5221 37.1746 35.1061 37.1746 34.6723V28.3103C37.1746 27.8765 37.0023 27.4605 36.6956 27.1538C36.3889 26.8471 35.9729 26.6748 35.5391 26.6748C35.1054 26.6748 34.6894 26.8471 34.3827 27.1538C34.0759 27.4605 33.9036 27.8765 33.9036 28.3103V30.7145H21.9646C21.5308 30.7145 21.1148 30.8868 20.8081 31.1935C20.5014 31.5002 20.3291 31.9162 20.3291 32.3499V49.3099C20.3291 49.7437 20.5014 50.1597 20.8081 50.4664C21.1148 50.7731 21.5308 50.9454 21.9646 50.9454H48.4104C48.8441 50.9454 49.2601 50.7731 49.5668 50.4664C49.8736 50.1597 50.0459 49.7437 50.0459 49.3099V32.3499C50.0459 31.9162 49.8736 31.5002 49.5668 31.1935C49.2601 30.8868 48.8441 30.7145 48.4104 30.7145Z" fill="#06D6B4"/>
</svg>
