<svg width="53" height="48" viewBox="0 0 53 48" fill="none" xmlns="http://www.w3.org/2000/svg">
<path d="M45.9012 14.7542V37.0175C45.9012 37.5151 45.7036 37.9922 45.3518 38.344C45 38.6958 44.5228 38.8935 44.0253 38.8935H3.87594C3.37841 38.8935 2.90126 38.6958 2.54945 38.344C2.19764 37.9922 2 37.5151 2 37.0175V8.88924C2 8.39171 2.19764 7.91456 2.54945 7.56275C2.90126 7.21095 3.37841 7.01331 3.87594 7.01331H31.6592" stroke="#FF640B" stroke-width="3.23438"/>
<path d="M2 31.8964H45.9012" stroke="#FF640B" stroke-width="3.23438"/>
<path d="M15.6602 46.2894C16.9982 45.6512 18.0616 44.5524 18.6556 43.1941C19.2495 41.8359 19.3344 40.3091 18.8945 38.8934" stroke="#FF640B" stroke-width="3.23438"/>
<path d="M33.072 46.2894C31.7257 45.6586 30.6519 44.5635 30.0479 43.2049C29.4439 41.8464 29.3501 40.3156 29.7837 38.8934" stroke="#FF640B" stroke-width="3.23438"/>
<path d="M10.5068 46.2893H37.3953" stroke="#FF640B" stroke-width="3.23438" stroke-linecap="round"/>
<path d="M15.5524 20.63C17.6542 20.63 19.3581 18.9261 19.3581 16.8242C19.3581 14.7223 17.6542 13.0184 15.5524 13.0184C13.4505 13.0184 11.7466 14.7223 11.7466 16.8242C11.7466 18.9261 13.4505 20.63 15.5524 20.63Z" stroke="#FF640B" stroke-width="3.23438"/>
<path d="M23.2609 31.8964C23.258 29.8538 22.4446 27.8959 20.9993 26.4526C19.5539 25.0093 17.5948 24.1986 15.5523 24.1986C13.5125 24.2015 11.5573 25.0137 10.1161 26.4571C8.67477 27.9004 7.86523 29.8567 7.86523 31.8964H23.2609Z" stroke="#FF640B" stroke-width="3.23438"/>
<path d="M49.4595 14.7542H40.4033L34.9264 18.6247C34.9121 18.6342 34.8956 18.6398 34.8785 18.6409C34.8614 18.642 34.8443 18.6386 34.829 18.6309C34.8136 18.6232 34.8006 18.6116 34.7912 18.5973C34.7818 18.5829 34.7764 18.5663 34.7754 18.5492V14.7542H32.5869C32.3418 14.7514 32.1076 14.6528 31.9343 14.4796C31.7611 14.3063 31.6625 14.0721 31.6597 13.827V2.92719C31.6597 2.68128 31.7574 2.44545 31.9312 2.27157C32.1051 2.09769 32.341 2 32.5869 2H49.4595C49.7054 2 49.9412 2.09769 50.1151 2.27157C50.289 2.44545 50.3867 2.68128 50.3867 2.92719V13.827C50.3839 14.0721 50.2853 14.3063 50.112 14.4796C49.9388 14.6528 49.7046 14.7514 49.4595 14.7542Z" stroke="#FF640B" stroke-width="3.23438"/>
</svg>
