<svg width="50" height="49" viewBox="0 0 50 49" fill="none" xmlns="http://www.w3.org/2000/svg">
<path d="M0 46.4531C0 47.3668 0.740959 48.1078 1.65469 48.1078H48.0663C48.98 48.1078 49.721 47.3668 49.721 46.4531V1.65452C49.721 0.740959 48.98 0 48.0663 0H1.65469C0.740959 0 0 0.740959 0 1.65452V46.4531ZM3.30921 3.3092H46.4119V30.0311H23.7849V24.1846L30.1346 17.8861C30.447 17.5763 30.6231 17.1549 30.6239 16.7149C30.6248 16.275 30.4505 15.8528 30.1393 15.5414L30.0939 15.496L39.5039 8.43866C40.2348 7.8904 40.383 6.85312 39.8349 6.12204C39.2866 5.39112 38.2495 5.24296 37.5182 5.79107L27.7301 13.132L27.4093 12.8113C26.8748 12.2771 26.0457 12.1728 25.3957 12.558L22.0944 14.5148C22.2696 13.8978 22.3654 13.2477 22.3654 12.575C22.3654 8.65195 19.1737 5.46026 15.2506 5.46026C11.3273 5.46026 8.13582 8.65195 8.13582 12.575C8.13582 14.2023 8.6861 15.7024 9.60853 16.9024C7.98231 18.3221 7.54202 20.476 7.36322 21.3536C6.89866 23.6332 6.83538 26.6044 6.82667 30.0313H3.30921V3.3092ZM15.2508 16.3806C13.1523 16.3806 11.4452 14.6735 11.4452 12.575C11.4452 10.4767 13.1523 8.76964 15.2508 8.76964C17.3491 8.76964 19.0562 10.4767 19.0562 12.575C19.0562 14.6735 17.3491 16.3806 15.2508 16.3806ZM10.6058 22.0142C10.8412 20.859 11.1562 20.1415 11.5127 19.6897H19.4002C19.6969 19.6897 19.9885 19.6098 20.2438 19.4585L25.9776 16.0597L26.6245 16.7066L20.965 22.3205C20.6516 22.6312 20.4755 23.0541 20.4755 23.4952V30.0309H10.1357C10.1441 26.7869 10.2017 23.997 10.6058 22.0142ZM46.4117 33.3403V44.7986H3.30921V33.3403H46.4117Z" fill="#FEB800"/>
<path d="M43.1925 37.2286H13.4121V36.7195C13.4121 35.8058 12.6714 35.0648 11.7575 35.0648C10.8437 35.0648 10.1029 35.8058 10.1029 36.7195V37.2286H6.52805C5.61433 37.2286 4.87354 37.9696 4.87354 38.8833C4.87354 39.797 5.61433 40.538 6.52805 40.538H10.1029V41.0471C10.1029 41.9608 10.8437 42.7018 11.7575 42.7018C12.6714 42.7018 13.4121 41.9608 13.4121 41.0471V40.538H43.1925C44.1064 40.538 44.8472 39.797 44.8472 38.8833C44.8472 37.9696 44.1064 37.2286 43.1925 37.2286Z" fill="#FEB800"/>
</svg>
