<svg width="39" height="53" viewBox="0 0 39 53" fill="none" xmlns="http://www.w3.org/2000/svg">
<path fill-rule="evenodd" clip-rule="evenodd" d="M12.0557 33.5398C14.3281 32.5981 16.7639 32.1134 19.2237 32.1134C21.6836 32.1134 24.1193 32.5981 26.3918 33.5398C28.6642 34.4815 30.7289 35.8617 32.4677 37.6016C34.2066 39.3415 35.5856 41.407 36.5259 43.68C37.4662 45.953 37.9494 48.389 37.9479 50.8489L37.947 52.3988H0.500448L0.499515 50.8489C0.498034 48.389 0.981256 45.953 1.92157 43.68C2.86189 41.407 4.24087 39.3415 5.97972 37.6016C7.71857 35.8617 9.78322 34.4815 12.0557 33.5398ZM19.2237 35.2152C17.1714 35.2152 15.1391 35.6195 13.2431 36.4052C11.3471 37.1909 9.62445 38.3425 8.17365 39.7942C6.72285 41.2459 5.5723 42.9692 4.78775 44.8657C4.20142 46.283 3.8281 47.7763 3.6774 49.2971H34.7701C34.6194 47.7763 34.246 46.283 33.6597 44.8657C32.8752 42.9692 31.7246 41.2459 30.2738 39.7942C28.823 38.3425 27.1004 37.1909 25.2044 36.4052C23.3083 35.6195 21.2761 35.2152 19.2237 35.2152Z" fill="#A6A7F6"/>
<path fill-rule="evenodd" clip-rule="evenodd" d="M18.7371 7.56812L18.758 7.5684C21.5586 7.606 24.353 7.84524 27.1192 8.28424C27.4718 8.32915 27.8019 8.48971 28.0559 8.74373C28.3584 9.04619 28.5283 9.45643 28.5283 9.88423V9.89027L28.4353 21.8332C28.4331 23.1496 28.1693 24.4525 27.6593 25.6662C27.1486 26.8816 26.4011 27.9832 25.4604 28.9068C24.5196 29.8304 23.4045 30.5576 22.18 31.0459C20.9554 31.5343 19.6459 31.7741 18.3278 31.7513L18.3103 31.751L18.2929 31.7503C15.6624 31.6456 13.1765 30.5191 11.3636 28.6104C9.55276 26.7039 8.55587 24.1671 8.58408 21.5381V9.88778C8.58304 9.50902 8.71535 9.14188 8.95791 8.8508C9.20436 8.55507 9.54853 8.35714 9.92832 8.29298L9.94113 8.29082L9.95396 8.28887C12.8548 7.84866 15.7824 7.60794 18.7162 7.5684L18.7371 7.56812ZM18.7372 10.6701C16.3785 10.7027 14.0242 10.872 11.6858 11.1769V21.5558L11.6857 21.5649C11.6644 23.3898 12.3557 25.151 13.6125 26.4742C14.8654 27.7933 16.5817 28.5734 18.3988 28.6503C19.2996 28.6636 20.1941 28.4986 21.031 28.1648C21.8732 27.8289 22.6403 27.3288 23.2873 26.6935C23.9343 26.0582 24.4485 25.3005 24.7998 24.4645C25.1511 23.6286 25.3325 22.7311 25.3335 21.8243L25.3335 21.8191L25.4165 11.1684C23.2026 10.8675 20.972 10.701 18.7372 10.6701Z" fill="#A6A7F6"/>
<path fill-rule="evenodd" clip-rule="evenodd" d="M18.1697 0H18.9319L36.2001 8.18469L36.2656 8.22406C36.5056 8.36829 36.7043 8.57222 36.8423 8.81612C36.9801 9.05961 37.0528 9.33492 37.0528 9.61542C37.0528 9.89596 36.9801 10.1713 36.8423 10.4147C36.7043 10.6586 36.5056 10.8625 36.2656 11.0068L36.2 11.0462L27.6424 15.1009L26.3143 12.2979L31.9762 9.61519L18.5542 3.25352L5.09789 9.67772L10.7834 12.2902L9.48832 15.1086L0.802387 11.1175L0.681269 11.0306C0.470459 10.8793 0.298725 10.6801 0.180262 10.4493C0.0617655 10.2184 0 9.96268 0 9.7033C0 9.44392 0.0617655 9.1882 0.180262 8.95734C0.298725 8.72654 0.470459 8.52726 0.681269 8.37601L0.793049 8.29581L18.1697 0Z" fill="#A6A7F6"/>
<path fill-rule="evenodd" clip-rule="evenodd" d="M7.73687 16.5013H10.1356V19.6031H7.80478C7.80379 19.6033 7.80275 19.6036 7.80168 19.6039C7.76733 19.6127 7.71182 19.6331 7.65298 19.6787C7.60065 19.7192 7.21991 20.0145 7.21991 21.2574C7.21991 22.3109 7.55433 22.5473 7.60275 22.5816C7.60358 22.5822 7.60432 22.5827 7.60498 22.5832C7.66458 22.6258 7.72673 22.6484 7.77332 22.6595C7.78055 22.6613 7.78676 22.6625 7.79176 22.6635H10.5491V25.7652H7.73687V24.2184C7.73687 25.7652 7.73578 25.7652 7.73468 25.7652L7.73243 25.7652L7.72776 25.7652C7.72458 25.7652 7.72125 25.7652 7.71777 25.7651C7.71082 25.765 7.70328 25.7649 7.69518 25.7647C7.67898 25.7644 7.66047 25.7637 7.63981 25.7627C7.59854 25.7608 7.54833 25.7573 7.49043 25.7514C7.37515 25.7397 7.22613 25.7177 7.05422 25.6768C6.71309 25.5955 6.25828 25.4333 5.80093 25.1063C4.80616 24.395 4.11816 23.1429 4.11816 21.2574C4.11816 19.2951 4.77134 17.9878 5.75293 17.227C6.21105 16.872 6.6725 16.692 7.02586 16.6007C7.20303 16.555 7.35724 16.5303 7.47736 16.517C7.53767 16.5103 7.59018 16.5064 7.63362 16.5042C7.65538 16.5031 7.67495 16.5024 7.69218 16.5019C7.7008 16.5017 7.70884 16.5016 7.71629 16.5015C7.72002 16.5014 7.7236 16.5014 7.72703 16.5014L7.73206 16.5014L7.73449 16.5013C7.73569 16.5013 7.73687 16.5013 7.73687 18.0522V16.5013Z" fill="#A6A7F6"/>
<path fill-rule="evenodd" clip-rule="evenodd" d="M29.2162 19.9753H26.8848V16.8735H29.2835V18.4244C29.2835 16.8735 29.2847 16.8735 29.2859 16.8735L29.2883 16.8735L29.2933 16.8736C29.2968 16.8736 29.3003 16.8736 29.304 16.8737C29.3115 16.8738 29.3195 16.8739 29.3281 16.8741C29.3453 16.8745 29.3648 16.8752 29.3865 16.8764C29.4299 16.8786 29.4823 16.8825 29.5425 16.8891C29.6624 16.9024 29.8164 16.9269 29.9934 16.9724C30.3462 17.0633 30.8074 17.2425 31.2655 17.5964C32.2478 18.3552 32.9022 19.6603 32.9022 21.6192C32.9022 23.5047 32.2142 24.7569 31.2195 25.4682C30.7621 25.7952 30.3073 25.9573 29.9662 26.0386C29.7943 26.0796 29.6452 26.1015 29.53 26.1133C29.4721 26.1192 29.4219 26.1226 29.3806 26.1246C29.3599 26.1256 29.3414 26.1262 29.3252 26.1266C29.3171 26.1268 29.3096 26.1269 29.3026 26.127C29.2992 26.127 29.2958 26.127 29.2926 26.1271L29.288 26.1271L29.2857 26.1271C29.2846 26.1271 29.2835 26.1271 29.2835 24.5762V26.1271H26.4609V23.0253H29.2286C29.2336 23.0244 29.2398 23.0231 29.2471 23.0214C29.2937 23.0103 29.3558 22.9876 29.4154 22.945C29.4161 22.9445 29.4168 22.944 29.4176 22.9434C29.4661 22.9092 29.8005 22.6727 29.8005 21.6192C29.8005 20.3841 29.4215 20.0914 29.3694 20.0512L29.3693 20.0511C29.3105 20.0056 29.2547 19.9852 29.2199 19.9762C29.2186 19.9759 29.2174 19.9756 29.2162 19.9753Z" fill="#A6A7F6"/>
<path fill-rule="evenodd" clip-rule="evenodd" d="M36.1276 10.1635V27.1507H33.0259V10.1635H36.1276Z" fill="#A6A7F6"/>
<path fill-rule="evenodd" clip-rule="evenodd" d="M34.5773 28.7015C34.2176 28.7015 33.926 28.9931 33.926 29.3528C33.926 29.7126 34.2176 30.0042 34.5773 30.0042C34.9371 30.0042 35.2287 29.7126 35.2287 29.3528C35.2287 28.9931 34.9371 28.7015 34.5773 28.7015ZM30.8242 29.3528C30.8242 27.2801 32.5045 25.5997 34.5773 25.5997C36.6501 25.5997 38.3304 27.2801 38.3304 29.3528C38.3304 31.4256 36.6501 33.106 34.5773 33.106C32.5045 33.106 30.8242 31.4256 30.8242 29.3528Z" fill="#A6A7F6"/>
<path fill-rule="evenodd" clip-rule="evenodd" d="M18.7684 14.3919C15.778 14.3334 12.7895 14.5813 9.84961 15.132L10.4206 18.1807C13.1586 17.6679 15.9419 17.4376 18.7269 17.4935L18.7475 17.4939L18.7682 17.4938C21.4279 17.4762 24.0834 17.7067 26.7004 18.1822L27.2549 15.1304C24.4551 14.6217 21.614 14.3745 18.7684 14.3919Z" fill="#A6A7F6"/>
</svg>
